:FULLY-SPECIFIED
:FORCE-ALL-JOINTS-BE-3DOF
:DEGREES
340
root 8.21514 16.0714 -20.4409 11.2539 23.8935 4.23285
lfemur -8.72325 15.9312 -10.2461
ltibia 39.3083 -0 0
lfoot 7.33772 29.4361 0.00615881
ltoes -31.5232 0 0
rfemur -48.4827 -14.767 9.92517
rtibia 55.7177 -0 0
rfoot 2.91036 -19.0286 -0.0156306
rtoes 0.210885 -0 0
lowerback -1.33202 -1.90113 -1.56035
upperback 1.63699 -2.49356 -0.0531775
thorax 2.49281 -1.27218 0.737219
lowerneck -5.63297 -8.64081 -0.691309
upperneck -2.10171 -11.4992 6.64055
head 0.743404 -5.68673 1.88425
lclavicle -1.46506e-15 2.92788e-15 -5.05187e-31
lhumerus -48.2784 -34.0674 109.646
lradius 57.2955 -0 0
lwrist 20.5792 0 0
lhand 6.05154 12.1764 0.00319217
lfingers 7.12502 -0 0
lthumb 31.3734 39.5143 0.00605688
rclavicle -1.46506e-15 2.92788e-15 -5.05187e-31
rhumerus -22.2371 19.7905 -73.5697
rradius 85.2373 -0 0
rwrist 2.6737 0 0
rhand 10.354 -7.24968 -0.161857
rfingers 7.12502 -0 0
rthumb 35.2927 -32.4394 0.344177
341
root 8.14915 16.1062 -20.2555 10.9748 22.1598 3.57385
lfemur -7.93652 14.4555 -9.43147
ltibia 39.6379 -0 0
lfoot 8.92355 30.1864 0.0225568
ltoes -30.0101 0 0
rfemur -48.404 -15.4057 11.9679
rtibia 55.3474 -0 0
rfoot 1.97439 -17.9231 1.49399e-05
rtoes -2.47131 0 0
lowerback -1.51682 -1.78794 -1.28765
upperback 1.58198 -2.35043 0.0678194
thorax 2.5305 -1.19664 0.708458
lowerneck -5.86018 -8.36288 -0.684224
upperneck -1.73951 -11.1498 6.54647
head 0.876737 -5.50119 1.84778
lclavicle 2.77955e-15 -4.93767e-16 -2.57943e-31
lhumerus -48.2547 -33.0292 109.346
lradius 56.9996 -0 0
lwrist 20.8223 0 0
lhand 5.49224 11.8967 0.00256546
lfingers 7.12502 -0 0
lthumb 30.8402 39.3358 0.00498634
rclavicle 2.77955e-15 -4.93767e-16 -2.57943e-31
rhumerus -23.8666 18.9751 -75.7376
rradius 85.0666 -0 0
rwrist 2.42135 0 0
rhand 2.33411 -8.96368 -0.10655
rfingers 7.12502 -0 0
rthumb 27.6408 -35.5906 0.482075
342
root 8.08013 16.1405 -20.0708 10.6748 20.4354 2.93337
lfemur -7.22854 13.0406 -8.63101
ltibia 40.1417 -0 0
lfoot 10.3247 30.655 0.0283141
ltoes -27.9553 0 0
rfemur -48.2334 -16.003 13.9722
rtibia 54.9284 -0 0
rfoot 0.974564 -16.7227 0.014169
rtoes -4.72847 0 0
lowerback -1.63447 -1.66802 -1.03088
upperback 1.54612 -2.19933 0.186594
thorax 2.55048 -1.11731 0.687973
lowerneck -6.07629 -8.08897 -0.665472
upperneck -1.38462 -10.8054 6.44259
head 1.00511 -5.31898 1.80769
lclavicle 5.62274e-15 -3.68882e-15 5.42144e-32
lhumerus -48.2231 -32.0685 109.051
lradius 56.7197 -0 0
lwrist 20.9756 0 0
lhand 4.92966 11.6144 0.00153769
lfingers 7.12502 -0 0
lthumb 30.3034 39.1513 0.00307874
rclavicle 5.62274e-15 -3.68882e-15 5.42144e-32
rhumerus -25.4398 18.0625 -77.8335
rradius 84.8235 -0 0
rwrist 2.21073 0 0
rhand -6.03805 -11.0714 -0.0991259
rfingers 7.12502 -0 0
rthumb 19.651 -39.1014 0.389147
343
root 8.00926 16.1732 -19.8893 10.3679 18.7501 2.33344
lfemur -6.66136 11.7894 -7.87373
ltibia 40.8616 -0 0
lfoot 11.5113 30.7112 0.0210867
ltoes -25.2525 0 0
rfemur -47.9317 -16.5434 15.8316
rtibia 54.4745 -0 0
rfoot -0.0901568 -15.479 0.0177445
rtoes -6.4463 0 0
lowerback -1.69008 -1.55267 -0.805702
upperback 1.52657 -2.05421 0.303408
thorax 2.55369 -1.0417 0.684254
lowerneck -6.27062 -7.81974 -0.647026
upperneck -1.04487 -10.4656 6.32723
head 1.12519 -5.14023 1.76565
lclavicle 8.03402e-15 -6.39472e-15 2.33566e-31
lhumerus -48.1692 -31.1774 108.758
lradius 56.4692 -0 0
lwrist 21.0289 0 0
lhand 4.34661 11.3422 0.000513986
lfingers 7.12502 -0 0
lthumb 29.7468 38.9771 0.00108943
rclavicle 8.03402e-15 -6.39472e-15 2.33566e-31
rhumerus -26.9204 17.1333 -79.7805
rradius 84.5192 -0 0
rwrist 2.13067 0 0
rhand -13.7907 -13.4986 -0.108806
rfingers 7.12502 -0 0
rthumb 12.2584 -42.6793 0.141599
344
root 7.93769 16.2032 -19.7134 10.0655 17.134 1.79433
lfemur -6.2926 10.8071 -7.184
ltibia 41.8393 0 0
lfoot 12.4536 30.2242 0
ltoes -21.7952 0 0
rfemur -47.4568 -17.0123 17.4382
rtibia 53.9997 0 0
rfoot -1.22134 -14.2428 0
rtoes -7.51052 0 0
lowerback -1.6889 -1.45313 -0.62779
upperback 1.52046 -1.92902 0.418519
thorax 2.54107 -0.977288 0.705791
lowerneck -6.43265 -7.55596 -0.640744
upperneck -0.728057 -10.1301 6.19864
head 1.23367 -4.96503 1.72327
lclavicle 1.09829e-14 -8.34896e-15 0
lhumerus -48.0794 -30.3479 108.462
lradius 56.2613 0 0
lwrist 20.9721 0 0
lhand 3.72593 11.0925 0
lfingers 7.12502 0 0
lthumb 29.154 38.8297 0
rclavicle 1.09829e-14 -8.34896e-15 0
rhumerus -28.2821 16.2733 -81.5099
rradius 84.1651 0 0
rwrist 2.27 0 0
rhand -19.9603 -16.1925 0
rfingers 7.12502 0 0
rthumb 6.37809 -766.076 0
345
root 7.86331 16.2312 -19.5409 9.72508 15.5871 1.31034
lfemur -6.04893 10.034 -6.52667
ltibia 43.1167 -0 0
lfoot 13.1597 29.1496 -0.0444334
ltoes -16.9367 0 0
rfemur -46.7339 -17.4453 18.803
rtibia 53.4755 -0 0
rfoot -2.49232 -12.9295 -0.039589
rtoes -7.76106 0 0
lowerback -1.60624 -1.37148 -0.504769
upperback 1.53904 -1.82617 0.533081
thorax 2.5106 -0.925292 0.759172
lowerneck -6.55825 -7.29772 -0.645288
upperneck -0.419857 -9.79952 6.04783
head 1.33385 -4.7937 1.67812
lclavicle 1.40289e-14 -9.64946e-15 -4.49504e-31
lhumerus -47.9577 -29.6066 108.178
lradius 56.0813 -0 0
lwrist 20.756 0 0
lhand 3.06241 10.8597 0.000355707
lfingers 7.12502 -0 0
lthumb 28.52 38.7035 -5.54117e-06
rclavicle 1.40289e-14 -9.64946e-15 -4.49504e-31
rhumerus -29.564 15.4634 -83.0761
rradius 83.7287 -0 0
rwrist 2.71639 0 0
rhand -25.1352 -19.6928 0.406858
rfingers 7.12502 -0 0
rthumb 1.42976 -49.8239 0.224405
346
root 7.78436 16.2584 -19.369 9.31899 14.0818 0.862101
lfemur -5.84846 9.35943 -5.86067
ltibia 44.6706 -0 0
lfoot 13.6595 27.5888 -0.102594
ltoes -10.5562 0 0
rfemur -45.7692 -17.8759 20.0202
rtibia 52.8799 -0 0
rfoot -3.9271 -11.4648 -0.0802397
rtoes -7.24617 0 0
lowerback -1.42939 -1.29892 -0.424965
upperback 1.58855 -1.73418 0.64736
thorax 2.46081 -0.879409 0.839002
lowerneck -6.65545 -7.04439 -0.64937
upperneck -0.108722 -9.47409 5.87328
head 1.42975 -4.62623 1.62786
lclavicle 1.61632e-14 -1.05623e-14 -7.04537e-31
lhumerus -47.8162 -28.9692 107.914
lradius 55.9123 -0 0
lwrist 20.3733 0 0
lhand 2.36957 10.6305 0.00115834
lfingers 7.12502 -0 0
lthumb 27.8577 38.5821 0.000289265
rclavicle 1.61632e-14 -1.05623e-14 -7.04537e-31
rhumerus -30.8071 14.6296 -84.5617
rradius 83.189 -0 0
rwrist 3.4201 0 0
rhand -30.3975 -24.2668 0.905529
rfingers 7.12502 -0 0
rthumb -3.62149 -54.3581 0.607019
347
root 7.70259 16.2844 -19.1989 8.87961 12.6083 0.44707
lfemur -5.73269 8.81414 -5.19904
ltibia 46.4453 -0 0
lfoot 13.955 25.6304 -0.15285
ltoes -3.33577 0 0
rfemur -44.6403 -18.2821 21.1088
rtibia 52.237 -0 0
rfoot -5.45313 -9.91503 -0.106383
rtoes -6.16399 0 0
lowerback -1.18162 -1.23003 -0.375175
upperback 1.65862 -1.64613 0.760245
thorax 2.39349 -0.835862 0.93581
lowerneck -6.73202 -6.79567 -0.6499
upperneck 0.193433 -9.15312 5.6842
head 1.51919 -4.46228 1.57428
lclavicle 1.75034e-14 -1.10769e-14 -7.75174e-31
lhumerus -47.6544 -28.4115 107.657
lradius 55.7649 -0 0
lwrist 19.8765 0 0
lhand 1.65832 10.4065 0.00194242
lfingers 7.12502 -0 0
lthumb 27.1774 38.4655 0.000658772
rclavicle 1.75034e-14 -1.10769e-14 -7.75174e-31
rhumerus -31.9952 13.7803 -85.9464
rradius 82.5749 -0 0
rwrist 4.26386 0 0
rhand -35.5084 -29.4332 1.22917
rfingers 7.12502 -0 0
rthumb -8.54244 -59.2918 0.899745
348
root 7.61972 16.3091 -19.0323 8.4393 11.1573 0.0611623
lfemur -5.74213 8.4297 -4.55426
ltibia 48.385 -0 0
lfoot 14.0469 23.3629 -0.178983
ltoes 4.04252 -0 0
rfemur -43.4248 -18.6384 22.0896
rtibia 51.5704 -0 0
rfoot -6.99724 -8.34725 -0.109234
rtoes -4.71269 0 0
lowerback -0.886135 -1.15934 -0.342228
upperback 1.7389 -1.55503 0.870599
thorax 2.31037 -0.79088 1.04012
lowerneck -6.79567 -6.55123 -0.643864
upperneck 0.474821 -8.83613 5.48967
head 1.59997 -4.30154 1.51918
lclavicle 1.81668e-14 -1.11829e-14 -6.90316e-31
lhumerus -47.472 -27.9091 107.393
lradius 55.6492 -0 0
lwrist 19.3181 0 0
lhand 0.939581 10.1892 0.00237149
lfingers 7.12502 -0 0
lthumb 26.4896 38.3538 0.000926479
rclavicle 1.81668e-14 -1.11829e-14 -6.90316e-31
rhumerus -33.1133 12.9253 -87.2107
rradius 81.915 -0 0
rwrist 5.13038 0 0
rhand -40.1919 -34.6756 1.24682
rfingers 7.12502 -0 0
rthumb -13.0673 -64.2045 0.967308
349
root 7.5375 16.3321 -18.8703 8.0305 9.71962 -0.301136
lfemur -5.91657 8.2386 -3.93908
ltibia 50.4338 -0 0
lfoot 13.9341 20.8751 -0.168661
ltoes 10.8966 -0 0
rfemur -42.2009 -18.9174 22.9858
rtibia 50.9041 -0 0
rfoot -8.486 -6.82871 -0.0874679
rtoes -3.09043 0 0
lowerback -0.566108 -1.0814 -0.312959
upperback 1.81907 -1.45387 0.977269
thorax 2.21324 -0.740715 1.14245
lowerneck -6.8541 -6.31075 -0.628323
upperneck 0.723773 -8.5228 5.29862
head 1.66993 -4.14368 1.46432
lclavicle 1.82707e-14 -1.087e-14 -4.9423e-31
lhumerus -47.2697 -27.4375 107.11
lradius 55.5758 -0 0
lwrist 18.7508 0 0
lhand 0.224274 9.98031 0.00223442
lfingers 7.12502 -0 0
lthumb 25.8049 38.247 0.000960731
rclavicle 1.82707e-14 -1.087e-14 -4.9423e-31
rhumerus -34.1476 12.0755 -88.3363
rradius 81.2382 -0 0
rwrist 5.90237 0 0
rhand -44.1539 -39.4667 0.964165
rfingers 7.12502 -0 0
rthumb -16.9109 -68.6601 0.787738
350
root 7.45764 16.3531 -18.7144 7.68583 8.28672 -0.646747
lfemur -6.29549 8.27389 -3.3676
ltibia 52.5359 -0 0
lfoot 13.6138 18.2551 -0.111978
ltoes 16.5443 -0 0
rfemur -41.0471 -19.0896 23.8228
rtibia 50.2619 -0 0
rfoot -9.84607 -5.4266 -0.0470189
rtoes -1.49537 0 0
lowerback -0.244666 -0.990877 -0.274197
upperback 1.8888 -1.33558 1.07909
thorax 2.10383 -0.68166 1.23331
lowerneck -6.91497 -6.07391 -0.600406
upperneck 0.928732 -8.21296 5.11985
head 1.7269 -3.98841 1.41147
lclavicle 1.79324e-14 -1.01276e-14 -2.42872e-31
lhumerus -47.0484 -26.9721 106.797
lradius 55.5549 -0 0
lwrist 18.2269 0 0
lhand -0.47668 9.78124 0.00143855
lfingers 7.12502 -0 0
lthumb 25.1336 38.1452 0.000670325
rclavicle 1.79324e-14 -1.01276e-14 -2.42872e-31
rhumerus -35.0853 11.2427 -89.3054
rradius 80.5731 -0 0
rwrist 6.46256 0 0
rhand -47.1084 -43.2888 0.494279
rfingers 7.12502 -0 0
rthumb -19.7888 -72.225 0.428707
351
root 7.3819 16.3719 -18.5661 7.43822 6.85019 -0.984032
lfemur -6.91857 8.56886 -2.85659
ltibia 54.6357 0 0
lfoot 13.0816 15.5905 0
ltoes 20.3036 0 0
rfemur -40.0419 -19.1248 24.6271
rtibia 49.6676 0 0
rfoot -11.0045 -4.20767 0
rtoes -0.125676 0 0
lowerback 0.0551134 -0.882563 -0.212782
upperback 1.93783 -1.19306 1.17486
thorax 1.98391 -0.610053 1.30319
lowerneck -6.98591 -5.84036 -0.557312
upperneck 1.07825 -7.90657 4.96204
head 1.76873 -3.83542 1.36237
lclavicle 1.72694e-14 -8.94531e-15 0
lhumerus -46.8097 -26.4884 106.442
lradius 55.5969 0 0
lwrist 17.7992 0 0
lhand -1.15236 9.59361 0
lfingers 7.12502 0 0
lthumb 24.4862 38.0484 0
rclavicle 1.72694e-14 -8.94531e-15 0
rhumerus -35.9142 10.439 -90.1014
rradius 79.9485 0 0
rwrist 6.69366 0 0
rhand -48.7915 -45.642 0
rfingers 7.12502 0 0
rthumb -21.4288 -794.477 0
352
root 7.30934 16.388 -18.4259 7.28576 5.39849 -1.32216
lfemur -7.81516 9.2175 -2.38679
ltibia 56.8473 -0 0
lfoot 12.2595 12.5889 0.151789
ltoes 21.9448 -0 0
rfemur -39.1623 -19.0134 25.3978
rtibia 49.1078 -0 0
rfoot -11.9624 -3.13756 0.0323582
rtoes 1.13862 -0 0
lowerback 0.344769 -0.747964 -0.131517
upperback 1.96262 -1.01455 1.26937
thorax 1.84305 -0.520201 1.35892
lowerneck -7.06379 -5.6143 -0.50022
upperneck 1.1738 -7.60949 4.82327
head 1.79532 -3.68749 1.31707
lclavicle 1.58792e-14 -6.7907e-15 3.02051e-31
lhumerus -46.5435 -25.9874 106.048
lradius 55.7177 -0 0
lwrist 17.4082 0 0
lhand -1.7564 9.44033 -0.00447418
lfingers 7.12502 -0 0
lthumb 23.9074 37.9763 -0.00307449
rclavicle 1.58792e-14 -6.7907e-15 3.02051e-31
rhumerus -36.6632 9.61781 -90.6893
rradius 79.3855 -0 0
rwrist 6.51221 0 0
rhand -48.9807 -46.4069 -0.325765
rfingers 7.12502 -0 0
rthumb -21.615 -75.2922 -0.31216
